PathFileType	4	(X/Y/Z)	s10c0001.trc
DataRate	CameraRate	NumFrames	NumMarkers	Units	OrigDataRate	OrigDataStartFrame	OrigNumFrames
200	200	4	49	mm	200	1250	2000
Frame#	Time	racr			lacr			c7			jug			rlel			rdr			llel			ldr			s2			lic			ric			lasi			rasi			rpsi			lpsi			rgt			lgt			rth1			rth2			rth3			rth4			rlfc			rmfc			rsh1			rsh2			rsh3			rsh4			rlmal			rmmal			rcal			rtoe			rmt5			rmt1			lth1			lth2			lth4			lth3			llfc			lmfc			llmal			lmmal			lcal			lmt1			lmt5			lsh1			lsh2			lsh3			lsh4			ltoe			
		X1	Y1	Z1	X2	Y2	Z2	X3	Y3	Z3	X4	Y4	Z4	X5	Y5	Z5	X6	Y6	Z6	X7	Y7	Z7	X8	Y8	Z8	X9	Y9	Z9	X10	Y10	Z10	X11	Y11	Z11	X12	Y12	Z12	X13	Y13	Z13	X14	Y14	Z14	X15	Y15	Z15	X16	Y16	Z16	X17	Y17	Z17	X18	Y18	Z18	X19	Y19	Z19	X20	Y20	Z20	X21	Y21	Z21	X22	Y22	Z22	X23	Y23	Z23	X24	Y24	Z24	X25	Y25	Z25	X26	Y26	Z26	X27	Y27	Z27	X28	Y28	Z28	X29	Y29	Z29	X30	Y30	Z30	X31	Y31	Z31	X32	Y32	Z32	X33	Y33	Z33	X34	Y34	Z34	X35	Y35	Z35	X36	Y36	Z36	X37	Y37	Z37	X38	Y38	Z38	X39	Y39	Z39	X40	Y40	Z40	X41	Y41	Z41	X42	Y42	Z42	X43	Y43	Z43	X44	Y44	Z44	X45	Y45	Z45	X46	Y46	Z46	X47	Y47	Z47	X48	Y48	Z48	X49	Y49	Z49	
1250	6.2500	461.877380	1378.272705	683.897522	482.653442	1386.776855	305.868164	430.649567	1426.607056	485.531067	562.706055	1375.315430	502.869476	454.418640	1123.149658	818.306702	475.842590	912.112610	932.725952	483.070435	1109.166870	194.327194	538.306152	907.300354	89.499100	387.285919	931.754761	496.367584	535.307861	994.056458	351.057281	538.603638	1001.453430	648.946228	598.133667	918.567505	383.487091	581.652954	907.543030	638.574158	405.807892	972.228149	558.817383	406.238770	983.962524	445.331757	464.679108	853.750305	684.102783	471.903809	854.538391	308.232300	484.380157	729.223267	714.874756	506.744568	643.295898	700.467773	484.681793	561.499390	691.682007	543.504211	646.045288	691.898010	493.833344	459.319733	674.960449	481.988495	441.217896	562.354248	447.867920	360.124451	716.812317	468.898621	273.225616	714.641357	444.250366	190.617065	716.660461	500.605560	274.189148	691.469971	454.113861	84.973755	709.938721	483.548615	95.894203	630.049500	420.345123	50.323383	655.048157	651.979614	85.039574	711.291504	566.118286	42.137218	755.908936	609.744812	46.708054	658.367004	494.178009	746.200928	282.720734	516.583191	663.819702	294.367767	550.588684	666.210083	304.947845	494.889252	577.851318	301.045776	496.071045	472.687958	315.042114	491.492676	454.732300	425.439270	450.773834	103.815880	283.975281	469.870087	101.019463	362.304352	411.050537	58.694725	327.052582	612.125977	47.386372	347.329681	579.616821	46.125511	245.191498	446.736298	364.299164	269.779907	472.844757	281.454102	275.797485	452.186218	194.263626	273.381866	501.753632	283.050232	301.620026	653.384827	92.354187	295.260223	
1251	6.2550	461.882874	1378.298584	683.895996	482.683502	1386.781494	305.881927	430.675690	1426.615723	485.524628	562.719910	1375.315063	502.874176	454.410553	1123.137817	818.326538	475.823975	912.136597	932.726685	483.100128	1109.170288	194.319366	538.288757	907.299622	89.506126	387.295380	931.769409	496.369110	535.302612	994.048462	351.033081	538.623779	1001.444580	648.927795	598.156860	918.568604	383.484985	581.673340	907.547485	638.573730	405.771423	972.252380	558.809998	406.239441	983.980774	445.327118	464.674652	853.754333	684.083801	471.925598	854.542053	308.217987	484.361877	729.223633	714.865540	506.768555	643.282104	700.451172	484.664337	561.506042	691.677612	543.526001	646.053040	691.890076	493.834900	459.328278	674.956482	481.985443	441.186829	562.354736	447.874023	360.143036	716.813721	468.893982	273.223846	714.635010	444.246582	190.614471	716.646301	500.621216	274.219452	691.481812	454.127350	84.992485	709.932800	483.558624	95.871048	630.063049	420.326508	50.324810	655.068481	652.012512	85.044472	711.292725	566.142700	42.143154	755.917969	609.743530	46.710934	658.362183	494.177368	746.208435	282.695007	516.596497	663.856445	294.337036	550.585754	666.190125	304.933441	494.896881	577.854126	301.044617	496.065643	472.677521	315.047028	491.521606	454.741943	425.445984	450.783203	103.824356	283.958160	469.890076	101.036354	362.286469	411.038879	58.703876	327.051849	612.123596	47.389854	347.341522	579.615173	46.108059	245.179764	446.742340	364.301575	269.771118	472.893738	281.453888	275.795654	452.174622	194.242416	273.375946	501.762817	283.041016	301.623169	653.387146	92.364136	295.254089	
1252	6.2600	461.897919	1378.297607	683.881897	482.673492	1386.776245	305.874725	430.710358	1426.620972	485.494568	562.729431	1375.304077	502.865051	454.459442	1123.171631	818.354797	475.807648	912.139709	932.739868	483.103943	1109.166260	194.313797	538.291931	907.298340	89.499130	387.298096	931.765747	496.327301	535.293030	994.057739	351.039062	538.630127	1001.436951	648.922913	598.144775	918.565979	383.476105	581.665222	907.561829	638.558289	405.802704	972.252319	558.789368	406.240601	983.987671	445.307434	464.683105	853.756409	684.073364	471.927002	854.551941	308.208771	484.356384	729.232178	714.870239	506.754639	643.301941	700.456848	484.656372	561.506653	691.673401	543.529785	646.050598	691.882507	493.834625	459.327820	674.949280	481.981079	441.168610	562.354004	447.890625	360.143372	716.811401	468.889496	273.232513	714.627930	444.252167	190.620163	716.645996	500.625305	274.205139	691.481201	454.104919	84.989075	709.942139	483.534302	95.884933	630.059021	420.306580	50.324059	655.044250	651.990051	85.041893	711.286987	566.161743	42.141140	755.900452	609.741211	46.713367	658.362183	494.197174	746.186646	282.691681	516.601013	663.845947	294.334045	550.614014	666.188721	304.934296	494.807129	577.821533	300.969330	496.071014	472.680664	315.037994	491.546295	454.750519	425.443909	450.781097	103.830711	283.947021	469.890320	101.039032	362.298584	411.043671	58.722855	327.050690	612.125366	47.399643	347.330292	579.615173	46.106205	245.183029	446.751068	364.292664	269.774567	472.836609	281.421661	275.788818	452.199341	194.242538	273.380859	501.789795	283.049286	301.630371	653.372314	92.358521	295.260803	
1253	6.2650	461.901611	1378.303467	683.874084	482.683655	1386.776489	305.867279	430.745178	1426.567017	485.435883	562.738586	1375.294922	502.854126	454.363708	1123.138794	818.282410	475.786224	912.142517	932.744568	483.121582	1109.160522	194.290665	538.298035	907.295959	89.491188	387.298309	931.780701	496.332336	535.302612	994.041077	351.027313	538.617126	1001.445740	648.916382	598.165649	918.570679	383.479095	581.676758	907.548401	638.555847	405.766205	972.276489	558.781921	406.246552	983.980530	445.297516	464.673004	853.765320	684.059082	471.939453	854.546875	308.194763	484.351501	729.239014	714.856995	506.731171	643.318298	700.440002	484.657654	561.505310	691.664124	543.523376	646.073364	691.864990	493.824646	459.333771	674.935974	481.975586	441.160339	562.351501	447.867554	360.154236	716.793213	468.893707	273.237274	714.629700	444.245605	190.617371	716.632385	500.599396	274.215363	691.488525	454.121277	85.000427	709.940186	483.545135	95.891502	630.061035	420.164520	50.535580	654.963501	651.989136	85.047455	711.290771	566.143799	42.159115	755.896912	609.746521	46.708939	658.357483	494.206757	746.190125	282.704224	516.595520	663.839661	294.321747	550.637390	666.192444	304.918243	494.914948	577.844604	301.030823	496.084381	472.694641	315.042603	491.541107	454.777985	425.433563	450.802582	103.830193	283.952637	469.887512	101.058342	362.289886	411.033203	58.722908	327.036316	612.133057	47.396702	347.328644	579.620850	46.118847	245.202164	446.755432	364.300568	269.780579	472.859741	281.416534	275.783539	452.201813	194.229416	273.382568	501.793488	283.060974	301.637085	653.371887	92.361145	295.259094	
